<svg width="16" height="16" viewBox="0 0 16 16" fill="none" xmlns="http://www.w3.org/2000/svg">
<rect width="16" height="16" fill="#1E1E1E"/>
<g id="01 &#208;&#154;&#208;&#187;&#208;&#184;&#208;&#181;&#208;&#189;&#209;&#130;&#209;&#139;  | &#208;&#146;&#208;&#184;&#208;&#180;&#208;&#181;&#208;&#190; &#208;&#191;&#209;&#128;&#208;&#190;&#208;&#179;&#209;&#128;&#208;&#176;&#208;&#188;&#208;&#188;&#209;&#139; | &#208;&#150;&#208;&#176;&#208;&#187;&#208;&#190;&#208;&#177;&#209;&#139; | &#208;&#157;&#208;&#190;&#208;&#178;&#208;&#176;&#209;&#143; &#208;&#183;&#208;&#176;&#208;&#188;&#208;&#181;&#209;&#130;&#208;&#186;&#208;&#176; ">
<rect width="1920" height="1139" transform="translate(-409 -102)" fill="#F1F2F3"/>
<g id="Frame 1000">
<g id="Frame 814">
<g id="Rectangle" filter="url(#filter0_d_0_1)">
<rect x="-19" y="-22" width="366" height="60" rx="4" fill="white"/>
</g>
<g id="Button/search">
<rect id="Rectangle 7" x="-9" y="-9" width="34" height="34" rx="17" fill="#F1F2F3"/>
<g id="search">
<g id="Frame 441">
<g id="loupe 1" clip-path="url(#clip0_0_1)">
<path id="Subtract" fill-rule="evenodd" clip-rule="evenodd" d="M13.2641 12.2379L15.7871 14.761C16.071 15.0448 16.071 15.5035 15.7872 15.7873C15.6456 15.9289 15.4598 16 15.274 16C15.0881 16 14.9023 15.9289 14.7608 15.7873L12.2378 13.2643L13.2641 12.2379ZM12.311 11.1555C13.2361 9.9815 13.7909 8.50298 13.7909 6.89555C13.7909 3.09357 10.6974 0 6.89544 0C3.0935 0 0 3.09353 0 6.89552C0 10.6975 3.09353 13.7911 6.89547 13.7911C8.41434 13.7911 9.8181 13.2957 10.9586 12.4606L10.9576 12.4597C10.9576 12.4597 11.4889 12.0253 11.7818 11.7324C12.0522 11.462 12.278 11.1949 12.311 11.1555ZM1.45169 6.89552C1.45169 9.89763 3.89339 12.3394 6.89547 12.3394C9.89751 12.3394 12.3393 9.89763 12.3393 6.89552C12.3393 3.89341 9.89755 1.45167 6.89547 1.45167C3.89339 1.45167 1.45169 3.89341 1.45169 6.89552Z" fill="#616F82"/>
</g>
</g>
</g>
</g>
</g>
</g>
</g>
<defs>
<filter id="filter0_d_0_1" x="-23" y="-25" width="374" height="68" filterUnits="userSpaceOnUse" color-interpolation-filters="sRGB">
<feFlood flood-opacity="0" result="BackgroundImageFix"/>
<feColorMatrix in="SourceAlpha" type="matrix" values="0 0 0 0 0 0 0 0 0 0 0 0 0 0 0 0 0 0 127 0" result="hardAlpha"/>
<feOffset dy="1"/>
<feGaussianBlur stdDeviation="2"/>
<feColorMatrix type="matrix" values="0 0 0 0 0.0745098 0 0 0 0 0.0745098 0 0 0 0 0.0745098 0 0 0 0.1 0"/>
<feBlend mode="normal" in2="BackgroundImageFix" result="effect1_dropShadow_0_1"/>
<feBlend mode="normal" in="SourceGraphic" in2="effect1_dropShadow_0_1" result="shape"/>
</filter>
<clipPath id="clip0_0_1">
<rect width="16" height="16" fill="white"/>
</clipPath>
</defs>
</svg>
